<mxfile host="app.diagrams.net" modified="2022-01-07T15:17:48.907Z" agent="5.0 (X11)" etag="uEuwtmsOt7DNZ-wpMCRR" version="16.2.3" type="github">
  <diagram id="67H3rBDdoItOkYTrAJD3" name="Page-1">
    <mxGraphModel dx="1350" dy="793" grid="1" gridSize="10" guides="1" tooltips="1" connect="1" arrows="1" fold="1" page="1" pageScale="1" pageWidth="827" pageHeight="1169" math="0" shadow="0">
      <root>
        <mxCell id="0" />
        <mxCell id="1" parent="0" />
        <mxCell id="vdsjULqOPzu0NttrxO3h-1" value="Vertical Container" style="swimlane;" vertex="1" parent="1">
          <mxGeometry x="40" y="40" width="200" height="200" as="geometry" />
        </mxCell>
        <mxCell id="vdsjULqOPzu0NttrxO3h-3" value="aa" style="swimlane;" vertex="1" parent="1">
          <mxGeometry x="40" y="280" width="200" height="200" as="geometry" />
        </mxCell>
        <mxCell id="vdsjULqOPzu0NttrxO3h-4" value="Vertical Container" style="swimlane;" vertex="1" parent="1">
          <mxGeometry x="280" y="280" width="200" height="200" as="geometry" />
        </mxCell>
        <mxCell id="vdsjULqOPzu0NttrxO3h-5" value="Vertical Container" style="swimlane;" vertex="1" parent="1">
          <mxGeometry x="520" y="280" width="200" height="200" as="geometry" />
        </mxCell>
        <mxCell id="vdsjULqOPzu0NttrxO3h-6" value="Vertical Container" style="swimlane;" vertex="1" parent="1">
          <mxGeometry x="520" y="40" width="200" height="200" as="geometry" />
        </mxCell>
        <mxCell id="vdsjULqOPzu0NttrxO3h-7" value="Vertical Container" style="swimlane;" vertex="1" parent="1">
          <mxGeometry x="280" y="40" width="200" height="200" as="geometry" />
        </mxCell>
        <mxCell id="vdsjULqOPzu0NttrxO3h-8" value="Vertical Container" style="swimlane;" vertex="1" parent="1">
          <mxGeometry x="40" y="520" width="200" height="200" as="geometry" />
        </mxCell>
        <mxCell id="vdsjULqOPzu0NttrxO3h-9" value="aa" style="swimlane;" vertex="1" parent="1">
          <mxGeometry x="40" y="760" width="200" height="200" as="geometry" />
        </mxCell>
        <mxCell id="vdsjULqOPzu0NttrxO3h-10" value="Vertical Container" style="swimlane;" vertex="1" parent="1">
          <mxGeometry x="280" y="760" width="200" height="200" as="geometry" />
        </mxCell>
        <mxCell id="vdsjULqOPzu0NttrxO3h-11" value="Vertical Container" style="swimlane;" vertex="1" parent="1">
          <mxGeometry x="520" y="760" width="200" height="200" as="geometry" />
        </mxCell>
        <mxCell id="vdsjULqOPzu0NttrxO3h-12" value="Vertical Container" style="swimlane;" vertex="1" parent="1">
          <mxGeometry x="520" y="520" width="200" height="200" as="geometry" />
        </mxCell>
        <mxCell id="vdsjULqOPzu0NttrxO3h-13" value="Vertical Container" style="swimlane;" vertex="1" parent="1">
          <mxGeometry x="280" y="520" width="200" height="200" as="geometry" />
        </mxCell>
      </root>
    </mxGraphModel>
  </diagram>
</mxfile>
